<?xml version="1.0" encoding="UTF-8"?>
<svg id="Ebene_1" xmlns="http://www.w3.org/2000/svg" version="1.1" viewBox="0 0 907.09 198.43">
  <!-- Generator: Adobe Illustrator 30.1.0, SVG Export Plug-In . SVG Version: 2.1.1 Build 136)  -->
  <defs>
    <style>
      .st0 {
        fill: #fff;
      }
    </style>
  </defs>
  <path class="st0" d="M195.46,59.71v-1.47c0-28.49-20.05-52.03-46.12-55.94-.2-.03-.39-.06-.59-.09-.55-.07-1.1-.14-1.65-.19-.4-.04-.81-.09-1.21-.12-.45-.04-.9-.06-1.35-.09-.34-.02-.67-.05-1-.06h-.43c-.47-.02-.95,0-1.42,0h-1.85c-.34,0-.67.05-1,.06-.45.02-.91.05-1.35.09-.41.03-.81.08-1.21.12-.55.06-1.11.12-1.65.19-.2.02-.39.06-.59.1-26.07,3.91-46.12,27.46-46.12,55.94v15.35l20.17,11.39v-25.63c0-16.66,10.63-31.33,25.4-35.35.22-.06.46-.1.68-.16.83-.21,1.68-.39,2.54-.53.53-.09,1.07-.12,1.6-.18.54-.06,1.07-.13,1.6-.16.59-.03,1.19-.02,1.79-.02s1.2-.02,1.8.02c.54.03,1.07.1,1.6.16s1.07.1,1.6.18c.87.14,1.72.32,2.56.53.22.06.46.1.68.16,14.76,4.02,25.4,18.68,25.4,35.35v53.01c0,4.71-2.74,9.09-7,10.56-2.81.96-5.39.53-7.57-.63v.05h0l.02-.05-.73-.36-51.87-28.99s0-.02-.02-.03l-20.37-11.5h0L26.01,46.92h0c-3.05-1.94-6.72-2.93-10.64-2.45C6.78,45.5.5,53.57.5,62.66v77.52c0,28.49,20.05,52.03,46.12,55.94.2.03.39.06.59.09.55.07,1.1.14,1.65.19.4.04.81.09,1.21.12.45.04.9.06,1.35.09.34.02.67.05,1,.06h.43c.47.02.95,0,1.42,0h1.85c.34,0,.67-.05,1-.06.45-.02.91-.05,1.35-.09.41-.03.81-.08,1.21-.12.55-.06,1.11-.12,1.65-.19.2-.02.39-.06.59-.1,26.07-3.91,46.12-27.46,46.12-55.94v-15.29l-20.17-11.41v25.59c0,16.66-10.63,31.33-25.4,35.35-.22.06-.46.1-.68.16-.83.21-1.68.39-2.54.53-.53.09-1.07.12-1.6.18-.54.06-1.07.13-1.6.16-.59.03-1.19.02-1.79.02s-1.2.02-1.8-.02c-.54-.03-1.07-.1-1.6-.16s-1.07-.1-1.6-.18c-.87-.14-1.72-.32-2.56-.53-.22-.06-.46-.1-.68-.16-14.76-4.02-25.4-18.68-25.4-35.35v-53.01c0-4.71,2.74-9.09,7-10.56,2.81-.96,5.39-.53,7.57.63v-.05h0l-.02.05.73.36,51.87,28.99s.02.02.02.03l20.35,11.52s.02,0,.03-.02l61.73,34.5h0c3.05,1.94,6.72,2.93,10.64,2.45,8.59-1.03,14.87-9.11,14.87-18.2V59.71h.05Z"/>
  <g>
    <path class="st0" d="M282.06,153.38v-40.98c0-12.49-6.09-17.77-15.05-17.77s-15.05,5.28-15.05,17.77v40.98h-24.01v-40.98c0-26.57,15.69-40.18,39.06-40.18s39.06,13.45,39.06,40.18v40.98h-24.01Z"/>
    <path class="st0" d="M343.58,120.57v.32c2.08,8.64,8.64,13.13,17.61,13.13,6.88,0,12.01-1.44,15.05-5.76h24.81c-5.12,16.33-20.17,27.21-39.86,27.21-24.98,0-42.59-17.61-42.59-41.62s17.61-41.62,42.59-41.62,42.1,17.61,42.1,41.62v6.73h-59.72.01,0ZM344.06,105.04v.32h34.58v-.32c-2.72-7.52-9.12-11.37-17.45-11.37s-14.57,3.85-17.13,11.37h0Z"/>
    <path class="st0" d="M455.22,155.46c-24.98,0-42.59-17.61-42.59-41.62s17.61-41.62,42.59-41.62,42.59,17.61,42.59,41.62-17.61,41.62-42.59,41.62ZM473.47,113.84c0-11.37-7.37-19.21-18.25-19.21s-18.25,7.84-18.25,19.21,7.37,19.21,18.25,19.21,18.25-7.85,18.25-19.21Z"/>
    <path class="st0" d="M576.62,122.16c0,22.58-13.45,33.3-33.14,33.3s-33.14-10.72-33.14-33.3V48.85h24.01v25.45h37.46v21.61h-37.46v26.25c0,8.33,3.84,10.89,9.12,10.89s9.12-2.56,9.12-10.89v-2.4h24.01v2.4h.02Z"/>
    <path class="st0" d="M627.57,155.46c-24.98,0-42.59-17.61-42.59-41.62s17.61-41.62,42.59-41.62,42.59,17.61,42.59,41.62-17.61,41.62-42.59,41.62ZM645.82,113.84c0-11.37-7.37-19.21-18.25-19.21s-18.25,7.84-18.25,19.21,7.37,19.21,18.25,19.21,18.25-7.85,18.25-19.21Z"/>
    <path class="st0" d="M682.7,114.64c0-25.93,17.29-42.42,42.26-42.42s42.59,17.61,42.59,41.62c0,29.3-21.14,41.62-37.95,41.62-10.08,0-18.09-4-22.57-10.25h-.32v41.95h-24.01s0-72.52,0-72.52ZM706.71,113.84c0,11.37,7.37,19.21,18.25,19.21s18.25-7.85,18.25-19.21-7.37-19.21-18.25-19.21-18.25,7.84-18.25,19.21Z"/>
    <path class="st0" d="M779.29,51.73c0-8.65,6.72-15.37,15.37-15.37s15.37,6.72,15.37,15.37-6.73,15.37-15.37,15.37-15.37-6.73-15.37-15.37ZM782.65,153.38v-79.09h24.01v79.09h-24.01Z"/>
    <path class="st0" d="M906.58,153.38h-22.09v-12.33h-.32c-3.85,8.64-12.81,14.4-24.49,14.4-16.81,0-37.95-12.33-37.95-41.62,0-24.01,17.61-41.62,42.59-41.62s42.26,16.49,42.26,42.42v38.74h0ZM882.57,113.84c0-11.37-7.37-19.21-18.25-19.21s-18.25,7.84-18.25,19.21,7.37,19.21,18.25,19.21,18.25-7.85,18.25-19.21Z"/>
  </g>
</svg>